<?xml version="1.0" encoding="UTF-8"?>
<!DOCTYPE svg PUBLIC "-//W3C//DTD SVG 1.1//EN" "http://www.w3.org/Graphics/SVG/1.1/DTD/svg11.dtd">
<!-- Creator: CorelDRAW 2021 (64-Bit) -->
<svg xmlns="http://www.w3.org/2000/svg" xml:space="preserve" width="0.188654in" height="0.188988in" version="1.1" style="shape-rendering:geometricPrecision; text-rendering:geometricPrecision; image-rendering:optimizeQuality; fill-rule:evenodd; clip-rule:evenodd"
viewBox="0 0 187.5 187.84"
 xmlns:xlink="http://www.w3.org/1999/xlink"
 xmlns:xodm="http://www.corel.com/coreldraw/odm/2003">
 <defs>
  <style type="text/css">
   <![CDATA[
    .fil0 {fill:#137FEC;fill-rule:nonzero}
   ]]>
  </style>
 </defs>
 <g id="Layer_x0020_1">
  <metadata id="CorelCorpID_0Corel-Layer"/>
  <path class="fil0" d="M104.68 83.06l0 -20.71 51.77 0 0 20.71 -51.77 0zm0 -41.41l0 -20.71 82.82 0 0 20.71 -82.82 0zm-98.09 70.01c3.62,-7.16 5.44,-14.89 15.27,-18.25l0 -62.12c10.37,-51.26 65.2,-30.98 62.12,0l0 62.12c6.56,5 11.65,11.09 15.27,18.25 10.56,20.87 7.27,42.82 -9.71,59.79 -42.18,42.18 -111.16,-4.05 -82.95,-59.79zm15.27 23.16l62.12 0c0,-5 -1.08,-9.66 -3.24,-13.98 -2.16,-4.32 -3.24,-8.97 -9.19,-10.87l-8.28 -6.21 0 -72.47c0,-2.93 -0.99,-5.39 -2.97,-7.37 -1.98,-1.98 -2.97,-4.44 -7.38,-2.98 -2.93,0 -5.39,0.99 -7.38,2.98 -1.98,1.98 -4.44,2.98 -2.98,7.38l0 72.47 -8.28 6.21c-3.97,2.93 -7.03,6.55 -9.19,10.87 -2.16,4.31 -5.22,7.94 -3.24,13.98z"/>
 </g>
</svg>
